<?xml version="1.0"?>
<svg version="1.1" xmlns="http://www.w3.org/2000/svg" width="400" height="200" style="border: dashed 2px #aaa"><path fill="#2aaefa" d="M16.14111328125,96.426513671875q-0.0400390625-0.530517578125,0.090087890625-1.0009765625t0.490478515625-0.78076171875t1.22119140625-0.310302734375q0.2001953125,0,0.490478515625,0.0400390625t0.58056640625,0.130126953125t0.470458984375,0.250244140625t0.18017578125,0.4404296875q0,0.74072265625,0.050048828125,1.951904296875t0.130126953125,2.5224609375t0.150146484375,2.5625t0.130126953125,2.031982421875q1.5615234375-0.080078125,3.14306640625-0.080078125t3.123046875-0.080078125l2.7626953125-0.080078125l0-1.98193359375q0-3.3232421875-0.130126953125-6.656494140625t-0.450439453125-6.656494140625q0-0.240234375,0.2001953125-0.390380859375t0.470458984375-0.230224609375t0.560546875-0.10009765625t0.450439453125-0.02001953125q0.46044921875,0,0.990966796875,0.14013671875t0.610595703125,0.6005859375l0.1201171875,0.86083984375q0.50048828125,3.603515625,0.6806640625,7.126953125t0.26025390625,7.046875q0.240234375,0.0400390625,0.510498046875,0.130126953125t0.550537109375,0.170166015625q0.2001953125,0.080078125,0.570556640625,0.240234375t0.370361328125,0.50048828125q0,0.3203125-0.2802734375,0.50048828125t-0.630615234375,0.270263671875t-0.6806640625,0.110107421875t-0.410400390625,0.02001953125q0.0400390625,1.4814453125,0.0400390625,2.952880859375l0,2.952880859375l0,6.46630859375l0,3.603515625q0,0.240234375-0.230224609375,0.430419921875t-0.550537109375,0.310302734375t-0.670654296875,0.16015625t-0.630615234375,0.0400390625t-0.66064453125-0.0400390625t-0.6806640625-0.16015625t-0.530517578125-0.30029296875t-0.230224609375-0.4404296875l0-0.86083984375q0.080078125-3.8037109375,0.18017578125-7.537353515625t0.2001953125-7.497314453125q-2.18212890625,0.080078125-4.434326171875,0.10009765625t-4.474365234375,0.10009765625q0.240234375,2.82275390625,0.550537109375,5.635498046875t0.650634765625,5.635498046875q0,0.240234375-0.230224609375,0.430419921875t-0.54052734375,0.310302734375t-0.66064453125,0.16015625t-0.630615234375,0.0400390625q-0.58056640625,0-1.271240234375-0.2001953125t-0.770751953125-0.74072265625q-0.240234375-2.1220703125-0.450439453125-4.6845703125t-0.370361328125-5.235107421875t-0.250244140625-5.235107421875t-0.090087890625-4.64453125q0-0.50048828125-0.0400390625-1.031005859375z M39.016831054688,112.55224609375q0-1.841796875,0.430419921875-3.613525390625t0.730712890625-3.533447265625q0.080078125-0.46044921875,0.630615234375-0.570556640625t0.930908203125-0.110107421875q0.66064453125,0,1.06103515625,0.2001953125q0.16015625,0.080078125,0.30029296875,0.18017578125t0.14013671875,0.26025390625q0,1.7216796875-0.410400390625,3.36328125t-0.410400390625,3.4833984375q0,0.62060546875,0.090087890625,1.171142578125t0.170166015625,1.091064453125l0.1201171875,0.58056640625q0,0.16015625,0.02001953125,0.2802734375t0.06005859375,0.2802734375q0,0.3603515625-0.510498046875,0.490478515625t-0.890869140625,0.130126953125q-0.58056640625,0-1.071044921875-0.230224609375t-0.770751953125-0.790771484375l-0.2802734375-0.58056640625q-0.240234375-0.46044921875-0.240234375-1.031005859375t-0.10009765625-1.051025390625z M40.298081054688,100.50048828125l0-0.38037109375q0-0.94091796875,0.470458984375-1.681640625t1.411376953125-0.74072265625q0.1201171875,0,0.230224609375,0.02001953125t0.230224609375,0.02001953125q0.240234375,0.0400390625,0.630615234375,0.190185546875t0.390380859375,0.470458984375l0,0.0400390625q-0.080078125,0.16015625-0.10009765625,0.330322265625t-0.10009765625,0.290283203125l0.0400390625-0.0400390625q-0.240234375,0.62060546875-0.390380859375,1.0009765625t-0.330322265625,0.610595703125t-0.450439453125,0.330322265625t-0.770751953125,0.10009765625q-0.080078125,0-0.2802734375-0.02001953125t-0.430419921875-0.080078125t-0.390380859375-0.16015625t-0.16015625-0.30029296875z M47.778779296875,113.1328125l0-0.58056640625q0-0.720703125,0.0400390625-1.361328125q0.0400390625-0.90087890625,0.0400390625-1.4814453125q0-0.3203125,0.0400390625-0.730712890625t0.2001953125-0.650634765625q0.2001953125-0.2001953125,0.470458984375-0.410400390625t0.590576171875-0.210205078125q1.02099609375,0,1.6015625,0.230224609375t0.62060546875,0.950927734375l0.080078125,0.62060546875q0.3603515625-0.86083984375,0.9609375-2.132080078125t1.391357421875-2.42236328125t1.78173828125-1.9619140625t2.092041015625-0.810791015625q1.02099609375,0,1.681640625,0.9609375t1.051025390625,2.452392578125t0.550537109375,3.3232421875t0.22021484375,3.593505859375t0.080078125,3.213134765625t0.14013671875,2.192138671875q0.080078125,0.62060546875,0.270263671875,1.311279296875t0.190185546875,1.271240234375q0,0.16015625-0.230224609375,0.310302734375t-0.490478515625,0.250244140625t-0.530517578125,0.16015625t-0.390380859375,0.06005859375q-0.78076171875,0-1.111083984375-1.171142578125t-0.410400390625-2.932861328125t-0.080078125-3.813720703125t-0.14013671875-3.813720703125t-0.570556640625-2.932861328125t-1.371337890625-1.211181640625q-0.86083984375,0-1.78173828125,1.111083984375t-1.58154296875,2.952880859375q-0.640625,1.841796875-0.880859375,4.18408203125q-0.080078125,0.74072265625-0.080078125,1.4814453125q0,1.62158203125,0.34033203125,3.2431640625q0.0400390625,0.2802734375-0.230224609375,0.42041015625t-0.670654296875,0.22021484375t-0.810791015625,0.10009765625t-0.630615234375,0.02001953125q-0.78076171875,0-1.251220703125-0.550537109375t-0.730712890625-1.411376953125t-0.350341796875-1.931884765625t-0.110107421875-2.112060546875z M65.969926757813,112.79248046875q0-1.5615234375,0.330322265625-2.832763671875t1.051025390625-2.152099609375t1.891845703125-1.371337890625t2.852783203125-0.490478515625q0.94091796875,0,1.921875,0.250244140625t1.681640625,0.930908203125q0-0.400390625,0.080078125-1.651611328125t0.2001953125-2.912841796875t0.250244140625-3.4833984375t0.230224609375-3.38330078125t0.18017578125-2.62255859375t0.1201171875-1.201171875q0.2001953125-0.58056640625,0.74072265625-0.690673828125t1.02099609375-0.110107421875q1.26123046875,0,1.551513671875,0.400390625t0.290283203125,1.6015625q0,4.38427734375-0.390380859375,8.728515625t-0.390380859375,8.728515625q0,2.82275390625,0.110107421875,5.675537109375t0.790771484375,5.615478515625l0.22021484375,0.2001953125l0.1201171875,0.3603515625l-0.30029296875,0.46044921875q-0.7607421875,0.48046875-1.76171875,0.48046875l-0.080078125,0q-1.02099609375,0-1.8818359375-0.48046875q-0.3203125-0.2001953125-0.530517578125-1.191162109375t-0.330322265625-2.18212890625t-0.18017578125-2.292236328125t-0.10009765625-1.5615234375q-0.70068359375,1.6015625-1.911865234375,2.752685546875t-3.052978515625,1.151123046875q-1.44140625,0-2.3623046875-0.62060546875t-1.431396484375-1.58154296875t-0.720703125-2.152099609375t-0.210205078125-2.372314453125z M68.392290039063,112.91259765625q0,0.46044921875,0.110107421875,1.361328125t0.350341796875,1.8017578125t0.670654296875,1.6015625t1.131103515625,0.70068359375q0.94091796875-0.46044921875,1.70166015625-1.531494140625t1.311279296875-2.3623046875t0.86083984375-2.58251953125t0.310302734375-2.232177734375q0-1.18115234375-0.86083984375-1.9619140625t-2.06201171875-0.78076171875q-0.3603515625,0-0.730712890625,0.14013671875t-0.690673828125,0.3203125q-0.74072265625,0.70068359375-1.151123046875,1.271240234375t-0.62060546875,1.18115234375t-0.270263671875,1.351318359375t-0.06005859375,1.7216796875z M84.101015625,111.27099609375q0-0.400390625,0.090087890625-1.06103515625t0.210205078125-1.311279296875t0.2802734375-1.211181640625t0.38037109375-0.720703125q0.16015625-0.16015625,0.550537109375-0.3203125t0.82080078125-0.230224609375t0.80078125,0.06005859375t0.450439453125,0.530517578125q-0.2802734375,0.3603515625-0.510498046875,1.231201171875t-0.350341796875,1.931884765625q-0.10009765625,0.90087890625-0.10009765625,1.86181640625l0,0.34033203125q0.02001953125,1.12109375,0.2001953125,2.06201171875t0.550537109375,1.551513671875t1.031005859375,0.610595703125q1.4013671875,0,2.5625-1.291259765625t2.06201171875-3.153076171875t1.58154296875-3.953857421875t1.1611328125-3.653564453125q0.1201171875-0.46044921875,0.570556640625-0.62060546875t0.970947265625-0.110107421875t0.930908203125,0.250244140625t0.490478515625,0.48046875q-0.400390625,3.36328125-0.630615234375,6.7265625t-0.230224609375,6.7666015625q0,0.66064453125,0.06005859375,1.211181640625t-0.06005859375,0.94091796875t-0.530517578125,0.62060546875t-1.311279296875,0.230224609375q-0.2001953125,0-0.510498046875-0.0400390625t-0.640625-0.130126953125t-0.560546875-0.270263671875t-0.230224609375-0.42041015625q0-1.4814453125,0.110107421875-3.04296875t0.310302734375-3.02294921875q-0.54052734375,0.78076171875-1.191162109375,1.551513671875t-1.431396484375,1.391357421875t-1.681640625,0.990966796875t-1.94189453125,0.370361328125q-1.4814453125,0-2.332275390625-0.70068359375t-1.28125-1.751708984375t-0.54052734375-2.292236328125t-0.110107421875-2.40234375z M102.93278808594,107.86767578125q0-0.82080078125,0.48046875-1.411376953125t1.171142578125-0.9609375t1.511474609375-0.550537109375t1.521484375-0.18017578125q0.54052734375,0,1.44140625,0.16015625t1.76171875,0.48046875t1.491455078125,0.8408203125t0.630615234375,1.22119140625q0,0.3203125-0.240234375,0.570556640625t-0.50048828125,0.250244140625q-0.54052734375,0-0.98095703125-0.350341796875t-0.910888671875-0.74072265625t-1.031005859375-0.74072265625t-1.26123046875-0.350341796875t-1.271240234375,0.450439453125t-0.570556640625,1.191162109375q0,1.22119140625,0.86083984375,2.392333984375t1.891845703125,2.46240234375t1.891845703125,2.712646484375t0.86083984375,3.14306640625q0,0.74072265625-0.310302734375,1.251220703125t-0.82080078125,0.830810546875t-1.151123046875,0.490478515625t-1.2412109375,0.170166015625q-0.66064453125,0-1.54150390625-0.310302734375t-1.66162109375-0.82080078125t-1.311279296875-1.191162109375t-0.530517578125-1.42138671875q0-0.3603515625,0.510498046875-0.46044921875t0.750732421875-0.10009765625q0.1201171875,0,0.370361328125,0.080078125t0.490478515625,0.18017578125t0.430419921875,0.22021484375t0.150146484375,0.26025390625q0.2001953125,0.240234375,0.610595703125,0.710693359375t0.82080078125,0.7607421875t0.720703125,0.210205078125t0.310302734375-0.90087890625q0-1.5615234375-0.8408203125-2.872802734375t-1.831787109375-2.5625t-1.831787109375-2.482421875t-0.8408203125-2.632568359375z M116.21915039063,100.3203125q0-0.2802734375,0.6005859375-0.48046875t1.361328125-0.330322265625t1.471435546875-0.190185546875t0.970947265625-0.10009765625q0-0.54052734375,0.0400390625-1.091064453125t0.22021484375-0.98095703125t0.570556640625-0.690673828125t1.091064453125-0.26025390625q0.58056640625,0,0.880859375,0.14013671875t0.640625,0.58056640625q0.080078125,0.240234375,0.080078125,0.46044921875l0,0.670654296875t-0.0400390625,0.690673828125q0.74072265625-0.080078125,1.471435546875-0.190185546875t1.471435546875-0.110107421875q0.54052734375,0,0.74072265625,0.02001953125t0.400390625,0.48046875q0.16015625,0.46044921875-0.390380859375,0.70068359375t-1.3212890625,0.3603515625t-1.531494140625,0.18017578125t-0.9208984375,0.06005859375q-0.240234375,3.443359375-0.490478515625,6.82666015625t-0.250244140625,6.86669921875q0,1.5615234375,0.10009765625,3.22314453125t0.560546875,3.14306640625q0.1201171875,0.46044921875,0.400390625,0.86083984375t0.2802734375,0.86083984375q0,0.2802734375-0.22021484375,0.4404296875t-0.530517578125,0.270263671875t-0.62060546875,0.130126953125t-0.510498046875,0.02001953125q-1.26123046875,0-1.921875-0.94091796875t-0.950927734375-2.252197265625t-0.310302734375-2.692626953125t-0.02001953125-2.2421875q0-1.76171875,0.070068359375-3.603515625t0.170166015625-3.6435546875t0.2802734375-3.5234375t0.42041015625-3.203125q-0.70068359375,0.080078125-1.371337890625,0.18017578125t-1.371337890625,0.10009765625q-0.16015625,0-0.430419921875-0.02001953125t-0.510498046875-0.10009765625t-0.410400390625-0.22021484375t-0.170166015625-0.400390625z M131.52748535156,113.03271484375q0-1.361328125,0.370361328125-2.62255859375t1.111083984375-2.252197265625t1.851806640625-1.58154296875t2.572509765625-0.590576171875q0.90087890625,0,1.991943359375,0.270263671875t2.052001953125,0.80078125t1.6015625,1.351318359375t0.640625,1.8818359375q0,0.50048828125-0.170166015625,0.7607421875t-0.690673828125,0.26025390625l-0.22021484375-0.0400390625q0.58056640625,1.5615234375,1.0009765625,3.203125t0.82080078125,3.283203125q0.16015625,0.3203125,0.240234375,0.570556640625t0.080078125,0.490478515625q0,0.3203125-0.18017578125,0.530517578125t-0.470458984375,0.310302734375t-0.6005859375,0.14013671875t-0.550537109375,0.0400390625q-0.86083984375,0-1.291259765625-0.30029296875t-0.62060546875-0.82080078125t-0.230224609375-1.171142578125t-0.16015625-1.311279296875q-0.240234375,0.78076171875-0.630615234375,1.521484375t-0.9208984375,1.331298828125t-1.251220703125,0.94091796875t-1.62158203125,0.350341796875q-1.3212890625,0-2.22216796875-0.7607421875t-1.451416015625-1.871826171875t-0.80078125-2.372314453125t-0.250244140625-2.34228515625z M134.37025878906,112.75244140625q0,0.74072265625,0.10009765625,1.5615234375t0.330322265625,1.62158203125t0.590576171875,1.511474609375t0.90087890625,1.251220703125q0.98095703125-1.06103515625,1.451416015625-2.58251953125t0.8408203125-2.932861328125t0.8408203125-2.42236328125t1.451416015625-1.010986328125q0.62060546875,0,1.041015625,0.22021484375q-0.2001953125-0.50048828125-0.66064453125-0.970947265625t-1.031005859375-0.86083984375t-1.18115234375-0.640625t-1.151123046875-0.250244140625q-0.16015625,0-0.370361328125,0.050048828125t-0.330322265625,0.010009765625q-0.82080078125,0.240234375-1.351318359375,0.830810546875t-0.86083984375,1.391357421875t-0.470458984375,1.6416015625t-0.14013671875,1.58154296875z M148.89783203125,113.1328125l0-0.58056640625q0-0.720703125,0.0400390625-1.361328125q0.0400390625-0.90087890625,0.0400390625-1.4814453125q0-0.3203125,0.0400390625-0.730712890625t0.2001953125-0.650634765625q0.2001953125-0.2001953125,0.470458984375-0.410400390625t0.590576171875-0.210205078125q1.02099609375,0,1.6015625,0.230224609375t0.62060546875,0.950927734375l0.080078125,0.62060546875q0.3603515625-0.86083984375,0.9609375-2.132080078125t1.391357421875-2.42236328125t1.78173828125-1.9619140625t2.092041015625-0.810791015625q1.02099609375,0,1.681640625,0.9609375t1.051025390625,2.452392578125t0.550537109375,3.3232421875t0.22021484375,3.593505859375t0.080078125,3.213134765625t0.14013671875,2.192138671875q0.080078125,0.62060546875,0.270263671875,1.311279296875t0.190185546875,1.271240234375q0,0.16015625-0.230224609375,0.310302734375t-0.490478515625,0.250244140625t-0.530517578125,0.16015625t-0.390380859375,0.06005859375q-0.78076171875,0-1.111083984375-1.171142578125t-0.410400390625-2.932861328125t-0.080078125-3.813720703125t-0.14013671875-3.813720703125t-0.570556640625-2.932861328125t-1.371337890625-1.211181640625q-0.86083984375,0-1.78173828125,1.111083984375t-1.58154296875,2.952880859375q-0.640625,1.841796875-0.880859375,4.18408203125q-0.080078125,0.74072265625-0.080078125,1.4814453125q0,1.62158203125,0.34033203125,3.2431640625q0.0400390625,0.2802734375-0.230224609375,0.42041015625t-0.670654296875,0.22021484375t-0.810791015625,0.10009765625t-0.630615234375,0.02001953125q-0.78076171875,0-1.251220703125-0.550537109375t-0.730712890625-1.411376953125t-0.350341796875-1.931884765625t-0.110107421875-2.112060546875z M174.88999023437,118.337890625q0.0400390625-0.8408203125,0.0400390625-1.6416015625q0-2.90283203125,0.210205078125-5.78564453125t0.290283203125-5.78564453125q0.1201171875-3.3232421875,0.22021484375-6.58642578125t0.400390625-6.56640625q0.080078125-0.82080078125,0.470458984375-1.071044921875t1.171142578125-0.250244140625q0.3603515625,0,0.9609375,0.14013671875t0.6005859375,0.6806640625q0.2802734375,0.0400390625,0.560546875,0.0400390625q0.42041015625,0,0.86083984375-0.080078125q0.720703125-0.1201171875,1.471435546875-0.270263671875t1.491455078125-0.290283203125t1.42138671875-0.14013671875q0.16015625,0,0.450439453125,0.02001953125t0.58056640625,0.1201171875t0.490478515625,0.250244140625t0.2001953125,0.390380859375t-0.470458984375,0.430419921875t-1.231201171875,0.330322265625t-1.6416015625,0.240234375t-1.7216796875,0.170166015625t-1.491455078125,0.110107421875t-0.930908203125,0.0400390625l-0.0400390625,7.52734375l0.0400390625,3.74365234375q0.62060546875,0,1.86181640625-0.0400390625q0.50048828125-0.02001953125,1.0009765625-0.02001953125q0.7607421875,0,1.5615234375,0.0400390625q1.3212890625,0.06005859375,2.38232421875,0.240234375t1.34130859375,0.640625q0,0.2802734375-0.290283203125,0.450439453125t-0.650634765625,0.250244140625t-0.730712890625,0.10009765625t-0.530517578125,0.02001953125q-1.4814453125,0-2.98291015625-0.06005859375t-2.962890625-0.240234375q0,2.46240234375-0.130126953125,4.884765625t-0.130126953125,4.884765625q0,1.06103515625,0.02001953125,2.092041015625t0.240234375,2.052001953125q0.54052734375-0.0400390625,1.171142578125-0.10009765625t1.28125-0.150146484375t1.251220703125-0.150146484375t1.041015625-0.06005859375q0.240234375,0,0.650634765625,0.06005859375t0.8408203125,0.2001953125t0.74072265625,0.350341796875t0.310302734375,0.490478515625q0,0.3203125-0.590576171875,0.570556640625t-1.511474609375,0.400390625t-2.011962890625,0.210205078125t-2.112060546875,0.080078125t-1.841796875,0.02001953125l-1.1611328125,0q-1.10107421875,0-1.611572265625-0.410400390625t-0.710693359375-1.071044921875q-0.16015625-0.54052734375-0.14013671875-1.22119140625l0-0.2802734375z M191.53963378906,114.0537109375q0-0.98095703125,0.130126953125-2.232177734375t0.410400390625-2.54248046875t0.7607421875-2.5224609375t1.191162109375-2.192138671875t1.691650390625-1.551513671875t2.30224609375-0.590576171875q1.44140625,0,2.672607421875,0.720703125t2.092041015625,1.86181640625l0.640625-0.080078125q0.16015625,0,0.450439453125,0.02001953125t0.560546875,0.10009765625t0.450439453125,0.22021484375t0.18017578125,0.400390625q0,4.96484375-0.22021484375,9.899658203125t-0.22021484375,9.899658203125q0,2.22216796875,0.350341796875,4.434326171875t0.350341796875,4.174072265625q0,0.2802734375-0.230224609375,0.450439453125t-0.560546875,0.270263671875t-0.650634765625,0.1201171875t-0.54052734375,0.02001953125q-0.54052734375,0-1.051025390625-0.10009765625t-0.830810546875-0.6005859375q-0.240234375-0.400390625-0.390380859375-1.411376953125t-0.210205078125-2.152099609375t-0.080078125-2.232177734375t-0.02001953125-1.631591796875q0-2.62255859375,0.130126953125-5.205078125t0.250244140625-5.205078125q-0.82080078125,1.521484375-2.092041015625,2.652587890625t-3.113037109375,1.131103515625q-1.3212890625,0-2.162109375-0.560546875t-1.331298828125-1.42138671875t-0.70068359375-1.94189453125t-0.210205078125-2.2021484375z M194.38240722656,113.9736328125q0,0.58056640625,0.02001953125,1.4013671875t0.18017578125,1.58154296875t0.470458984375,1.291259765625t0.930908203125,0.530517578125q1.06103515625,0,1.8818359375-1.251220703125t1.471435546875-3.072998046875t1.171142578125-3.873779296875t0.9609375-3.613525390625q-0.2001953125-0.3203125-0.590576171875-0.830810546875t-0.880859375-0.990966796875t-1.0009765625-0.82080078125t-0.970947265625-0.30029296875q-1.4013671875,0.1201171875-2.132080078125,1.291259765625t-1.0810546875,2.74267578125t-0.390380859375,3.233154296875t-0.0400390625,2.6826171875z M208.6096875,111.27099609375q0-0.400390625,0.090087890625-1.06103515625t0.210205078125-1.311279296875t0.2802734375-1.211181640625t0.38037109375-0.720703125q0.16015625-0.16015625,0.550537109375-0.3203125t0.82080078125-0.230224609375t0.80078125,0.06005859375t0.450439453125,0.530517578125q-0.2802734375,0.3603515625-0.510498046875,1.231201171875t-0.350341796875,1.931884765625q-0.10009765625,0.90087890625-0.10009765625,1.86181640625l0,0.34033203125q0.02001953125,1.12109375,0.2001953125,2.06201171875t0.550537109375,1.551513671875t1.031005859375,0.610595703125q1.4013671875,0,2.5625-1.291259765625t2.06201171875-3.153076171875t1.58154296875-3.953857421875t1.1611328125-3.653564453125q0.1201171875-0.46044921875,0.570556640625-0.62060546875t0.970947265625-0.110107421875t0.930908203125,0.250244140625t0.490478515625,0.48046875q-0.400390625,3.36328125-0.630615234375,6.7265625t-0.230224609375,6.7666015625q0,0.66064453125,0.06005859375,1.211181640625t-0.06005859375,0.94091796875t-0.530517578125,0.62060546875t-1.311279296875,0.230224609375q-0.2001953125,0-0.510498046875-0.0400390625t-0.640625-0.130126953125t-0.560546875-0.270263671875t-0.230224609375-0.42041015625q0-1.4814453125,0.110107421875-3.04296875t0.310302734375-3.02294921875q-0.54052734375,0.78076171875-1.191162109375,1.551513671875t-1.431396484375,1.391357421875t-1.681640625,0.990966796875t-1.94189453125,0.370361328125q-1.4814453125,0-2.332275390625-0.70068359375t-1.28125-1.751708984375t-0.54052734375-2.292236328125t-0.110107421875-2.40234375z M227.44145996094,112.55224609375q0-1.841796875,0.430419921875-3.613525390625t0.730712890625-3.533447265625q0.080078125-0.46044921875,0.630615234375-0.570556640625t0.930908203125-0.110107421875q0.66064453125,0,1.06103515625,0.2001953125q0.16015625,0.080078125,0.30029296875,0.18017578125t0.14013671875,0.26025390625q0,1.7216796875-0.410400390625,3.36328125t-0.410400390625,3.4833984375q0,0.62060546875,0.090087890625,1.171142578125t0.170166015625,1.091064453125l0.1201171875,0.58056640625q0,0.16015625,0.02001953125,0.2802734375t0.06005859375,0.2802734375q0,0.3603515625-0.510498046875,0.490478515625t-0.890869140625,0.130126953125q-0.58056640625,0-1.071044921875-0.230224609375t-0.770751953125-0.790771484375l-0.2802734375-0.58056640625q-0.240234375-0.46044921875-0.240234375-1.031005859375t-0.10009765625-1.051025390625z M228.72270996094,100.50048828125l0-0.38037109375q0-0.94091796875,0.470458984375-1.681640625t1.411376953125-0.74072265625q0.1201171875,0,0.230224609375,0.02001953125t0.230224609375,0.02001953125q0.240234375,0.0400390625,0.630615234375,0.190185546875t0.390380859375,0.470458984375l0,0.0400390625q-0.080078125,0.16015625-0.10009765625,0.330322265625t-0.10009765625,0.290283203125l0.0400390625-0.0400390625q-0.240234375,0.62060546875-0.390380859375,1.0009765625t-0.330322265625,0.610595703125t-0.450439453125,0.330322265625t-0.770751953125,0.10009765625q-0.080078125,0-0.2802734375-0.02001953125t-0.430419921875-0.080078125t-0.390380859375-0.16015625t-0.16015625-0.30029296875z M236.18338867187,105.78564453125q0-0.94091796875,0.370361328125-1.391357421875t1.351318359375-0.450439453125q0.58056640625,0,1.091064453125,0.240234375t0.510498046875,1.02099609375q0.080078125,1.14111328125,0.080078125,2.392333984375t0.22021484375,2.372314453125q0.50048828125-0.82080078125,1.131103515625-1.6416015625t1.391357421875-1.46142578125t1.66162109375-1.031005859375t1.9619140625-0.390380859375q1.44140625,0,2.4423828125,0.6005859375t1.651611328125,1.5615234375t0.94091796875,2.172119140625t0.290283203125,2.432373046875q0,1.8818359375-0.570556640625,3.072998046875t-1.511474609375,1.871826171875t-2.132080078125,0.9208984375t-2.392333984375,0.240234375q-1.06103515625,0-1.98193359375-0.410400390625t-1.28125-1.551513671875q0-0.3203125,0.470458984375-0.400390625t0.670654296875-0.080078125q0.66064453125,0,0.98095703125,0.3603515625q0.240234375,0.2802734375,0.530517578125,0.570556640625t0.610595703125,0.290283203125q0.62060546875,0,1.30126953125-0.350341796875t1.251220703125-0.9208984375t0.9609375-1.351318359375t0.390380859375-1.6015625q0-0.70068359375-0.1201171875-1.74169921875t-0.410400390625-2.001953125t-0.80078125-1.66162109375t-1.291259765625-0.70068359375q-1.18115234375,0-2.132080078125,1.0810546875t-1.58154296875,2.6025390625t-0.98095703125,3.1630859375t-0.350341796875,2.74267578125t0.14013671875,2.78271484375t0.290283203125,3.493408203125t0.290283203125,3.493408203125t0.14013671875,2.78271484375q0,0.2802734375-0.230224609375,0.450439453125t-0.550537109375,0.270263671875t-0.650634765625,0.1201171875t-0.490478515625,0.02001953125q-0.54052734375,0-1.131103515625-0.1201171875t-0.810791015625-0.74072265625q-0.2802734375-0.98095703125-0.5205078125-2.792724609375t-0.430419921875-4.00390625t-0.330322265625-4.6044921875t-0.240234375-4.654541015625t-0.150146484375-4.10400390625t-0.050048828125-2.962890625z M255.42556152344,108.01782226562q-0.050048828125-0.670654296875,0.080078125-1.231201171875t0.5205078125-0.910888671875t1.251220703125-0.350341796875q0.2001953125,0,0.490478515625,0.050048828125t0.570556640625,0.130126953125t0.470458984375,0.240234375t0.190185546875,0.4404296875l0,2.26220703125q0.78076171875-0.90087890625,1.70166015625-1.291259765625t2.10205078125-0.390380859375q0.90087890625,0,1.78173828125,0.410400390625t1.66162109375,1.091064453125t1.351318359375,1.50146484375t0.830810546875,1.6416015625q0.16015625-0.74072265625,0.3603515625-1.811767578125t0.590576171875-2.052001953125t1.031005859375-1.681640625t1.70166015625-0.70068359375q1.14111328125,0,1.921875,0.82080078125t1.271240234375,2.132080078125t0.74072265625,2.932861328125t0.370361328125,3.203125t0.1201171875,2.952880859375l0,2.152099609375q0,0.240234375-0.18017578125,0.390380859375t-0.450439453125,0.230224609375t-0.560546875,0.10009765625t-0.450439453125,0.02001953125q-0.62060546875,0-1.131103515625-0.190185546875t-0.510498046875-0.970947265625l0-1.8017578125t-0.0400390625-2.332275390625t-0.14013671875-2.50244140625t-0.26025390625-2.272216796875t-0.410400390625-1.6416015625t-0.610595703125-0.640625q-0.50048828125,0-0.720703125,0.560546875t-0.370361328125,1.42138671875t-0.230224609375,1.82177734375t-0.22021484375,1.82177734375t-0.450439453125,1.411376953125t-0.850830078125,0.550537109375q-0.58056640625,0-1.02099609375-0.550537109375t-0.870849609375-1.371337890625t-0.86083984375-1.76171875t-0.950927734375-1.76171875q-0.5205078125-0.8408203125-1.12109375-1.361328125q-0.54052734375-0.50048828125-1.22119140625-0.48046875l-0.10009765625,0q-0.90087890625,0.0400390625-1.411376953125,0.650634765625t-0.78076171875,1.491455078125t-0.330322265625,1.891845703125t-0.06005859375,1.771728515625q0,0.720703125,0.1201171875,1.681640625q0.080078125,0.640625,0.080078125,1.22119140625q0,0.30029296875-0.02001953125,0.58056640625q-0.06005859375,0.8408203125-0.450439453125,1.411376953125t-1.451416015625,0.570556640625q-0.400390625,0-1.0009765625-0.080078125t-0.80078125-0.54052734375q-0.46044921875-0.82080078125-0.70068359375-2.072021484375t-0.3603515625-2.58251953125t-0.14013671875-2.642578125t-0.02001953125-2.252197265625q0-0.66064453125-0.050048828125-1.331298828125z M280.67359375,113.853515625q0-1.4013671875,0.310302734375-3.30322265625t1.051025390625-3.603515625t1.951904296875-2.892822265625t3.052978515625-1.191162109375q1.7216796875,0,2.58251953125,0.990966796875t0.86083984375,2.672607421875q0,1.10107421875-0.410400390625,2.412353515625t-1.171142578125,2.482421875t-1.8017578125,1.951904296875t-2.322265625,0.78076171875l-0.5205078125-0.0400390625q0,0.54052734375,0.16015625,1.451416015625t0.470458984375,1.811767578125t0.80078125,1.58154296875t1.191162109375,0.6806640625q1.02099609375,0,1.9619140625-0.82080078125t1.78173828125-1.82177734375t1.5615234375-1.82177734375t1.3212890625-0.82080078125q0.3203125,0,0.66064453125,0.10009765625t0.38037109375,0.560546875q0,0.2802734375-0.150146484375,0.46044921875t-0.270263671875,0.400390625q-0.62060546875,1.06103515625-1.351318359375,2.02197265625t-1.651611328125,1.74169921875t-2.011962890625,1.231201171875t-2.412353515625,0.450439453125q-1.7216796875,0-2.86279296875-0.610595703125t-1.841796875-1.6416015625t-1.010986328125-2.38232421875t-0.310302734375-2.832763671875z M284.25708984375,112.33203125l0.560546875,0.50048828125q0.400390625,0.3603515625,0.80078125,0.16015625t0.720703125-0.730712890625t0.590576171875-1.311279296875t0.48046875-1.6015625t0.310302734375-1.6015625t0.10009765625-1.30126953125l0-0.6806640625t-0.06005859375-0.720703125t-0.210205078125-0.570556640625t-0.470458984375-0.290283203125q-0.10009765625-0.02001953125-0.18017578125-0.02001953125q-0.6806640625,0-1.1611328125,0.86083984375q-0.5205078125,0.9609375-0.8408203125,2.332275390625t-0.46044921875,2.812744140625t-0.18017578125,2.162109375z M297.42333496094,113.1328125l0-0.58056640625q0-0.720703125,0.0400390625-1.361328125q0.0400390625-0.90087890625,0.0400390625-1.4814453125q0-0.3203125,0.0400390625-0.730712890625t0.2001953125-0.650634765625q0.2001953125-0.2001953125,0.470458984375-0.410400390625t0.590576171875-0.210205078125q1.02099609375,0,1.6015625,0.230224609375t0.62060546875,0.950927734375l0.080078125,0.62060546875q0.3603515625-0.86083984375,0.9609375-2.132080078125t1.391357421875-2.42236328125t1.78173828125-1.9619140625t2.092041015625-0.810791015625q1.02099609375,0,1.681640625,0.9609375t1.051025390625,2.452392578125t0.550537109375,3.3232421875t0.22021484375,3.593505859375t0.080078125,3.213134765625t0.14013671875,2.192138671875q0.080078125,0.62060546875,0.270263671875,1.311279296875t0.190185546875,1.271240234375q0,0.16015625-0.230224609375,0.310302734375t-0.490478515625,0.250244140625t-0.530517578125,0.16015625t-0.390380859375,0.06005859375q-0.78076171875,0-1.111083984375-1.171142578125t-0.410400390625-2.932861328125t-0.080078125-3.813720703125t-0.14013671875-3.813720703125t-0.570556640625-2.932861328125t-1.371337890625-1.211181640625q-0.86083984375,0-1.78173828125,1.111083984375t-1.58154296875,2.952880859375q-0.640625,1.841796875-0.880859375,4.18408203125q-0.080078125,0.74072265625-0.080078125,1.4814453125q0,1.62158203125,0.34033203125,3.2431640625q0.0400390625,0.2802734375-0.230224609375,0.42041015625t-0.670654296875,0.22021484375t-0.810791015625,0.10009765625t-0.630615234375,0.02001953125q-0.78076171875,0-1.251220703125-0.550537109375t-0.730712890625-1.411376953125t-0.350341796875-1.931884765625t-0.110107421875-2.112060546875z M314.79368164062,100.3203125q0-0.2802734375,0.6005859375-0.48046875t1.361328125-0.330322265625t1.471435546875-0.190185546875t0.970947265625-0.10009765625q0-0.54052734375,0.0400390625-1.091064453125t0.22021484375-0.98095703125t0.570556640625-0.690673828125t1.091064453125-0.26025390625q0.58056640625,0,0.880859375,0.14013671875t0.640625,0.58056640625q0.080078125,0.240234375,0.080078125,0.46044921875l0,0.670654296875t-0.0400390625,0.690673828125q0.74072265625-0.080078125,1.471435546875-0.190185546875t1.471435546875-0.110107421875q0.54052734375,0,0.74072265625,0.02001953125t0.400390625,0.48046875q0.16015625,0.46044921875-0.390380859375,0.70068359375t-1.3212890625,0.3603515625t-1.531494140625,0.18017578125t-0.9208984375,0.06005859375q-0.240234375,3.443359375-0.490478515625,6.82666015625t-0.250244140625,6.86669921875q0,1.5615234375,0.10009765625,3.22314453125t0.560546875,3.14306640625q0.1201171875,0.46044921875,0.400390625,0.86083984375t0.2802734375,0.86083984375q0,0.2802734375-0.22021484375,0.4404296875t-0.530517578125,0.270263671875t-0.62060546875,0.130126953125t-0.510498046875,0.02001953125q-1.26123046875,0-1.921875-0.94091796875t-0.950927734375-2.252197265625t-0.310302734375-2.692626953125t-0.02001953125-2.2421875q0-1.76171875,0.070068359375-3.603515625t0.170166015625-3.6435546875t0.2802734375-3.5234375t0.42041015625-3.203125q-0.70068359375,0.080078125-1.371337890625,0.18017578125t-1.371337890625,0.10009765625q-0.16015625,0-0.430419921875-0.02001953125t-0.510498046875-0.10009765625t-0.410400390625-0.22021484375t-0.170166015625-0.400390625z"/><path fill="#" d=""/></svg>
